<svg width="393" height="78" viewBox="0 0 393 78" fill="none" xmlns="http://www.w3.org/2000/svg">
<g clip-path="url(#clip0_13_94)">
<rect width="393" height="78" fill="black"/>
<g clip-path="url(#clip1_13_94)">
<circle cx="167.413" cy="64.325" r="0.5" fill="white"/>
<circle cx="48.7118" cy="5.52164" r="0.5" fill="white"/>
<circle cx="3.61748" cy="56.6658" r="0.5" fill="white"/>
<circle cx="5.73817" cy="2.89813" r="0.5" fill="white"/>
<circle cx="168.404" cy="23.5228" r="0.5" fill="white"/>
<circle cx="54.3206" cy="31.585" r="0.5" fill="white"/>
<circle cx="138.195" cy="16.0376" r="0.5" fill="white"/>
<circle cx="99.5465" cy="61.4017" r="0.5" fill="white"/>
<circle cx="237.102" cy="70.0959" r="0.5" fill="white"/>
<circle cx="39.563" cy="18.5855" r="0.5" fill="white"/>
<circle cx="353.573" cy="37.104" r="0.5" fill="white"/>
<circle cx="272.011" cy="76.3202" r="0.5" fill="white"/>
<circle cx="147.426" cy="28.097" r="0.5" fill="white"/>
<circle cx="220.462" cy="60.7808" r="0.5" fill="white"/>
<circle cx="69.965" cy="69.2833" r="0.5" fill="white"/>
<circle cx="219.885" cy="45.2668" r="0.5" fill="white"/>
<circle cx="309.384" cy="14.7207" r="0.5" fill="white"/>
<circle cx="28.3491" cy="12.0157" r="0.5" fill="white"/>
<circle cx="325.654" cy="42.6751" r="0.5" fill="white"/>
<circle cx="168.437" cy="7.84305" r="0.5" fill="white"/>
<circle cx="181.671" cy="54.709" r="0.5" fill="white"/>
<circle cx="191.515" cy="25.0174" r="0.5" fill="white"/>
<circle cx="126.947" cy="20.0516" r="0.5" fill="white"/>
<circle cx="355.027" cy="72.1724" r="0.5" fill="white"/>
<circle cx="378.65" cy="59.4233" r="0.5" fill="white"/>
<circle cx="381.502" cy="61.4592" r="0.5" fill="white"/>
<circle cx="285.788" cy="22.0213" r="0.5" fill="white"/>
<circle cx="29.5306" cy="3.13904" r="0.5" fill="white"/>
<circle cx="188.541" cy="35.5977" r="0.5" fill="white"/>
<circle cx="320.552" cy="12.3414" r="0.5" fill="white"/>
<circle cx="39.0002" cy="64.1216" r="0.5" fill="white"/>
<circle cx="373.578" cy="25.9764" r="0.5" fill="white"/>
<circle cx="256.861" cy="5.8522" r="0.5" fill="white"/>
<circle cx="361.656" cy="54.614" r="0.5" fill="white"/>
<circle cx="201.43" cy="31.0768" r="0.5" fill="white"/>
<circle cx="321.82" cy="22.8003" r="0.5" fill="white"/>
<circle cx="369.484" cy="0.790588" r="0.5" fill="white"/>
<circle cx="249.829" cy="53.5372" r="0.5" fill="white"/>
<circle cx="62.8429" cy="70.8649" r="0.5" fill="white"/>
<circle cx="156.477" cy="15.0103" r="0.5" fill="white"/>
<circle cx="344.511" cy="59.8133" r="0.5" fill="white"/>
<circle cx="300.333" cy="10.8846" r="0.5" fill="white"/>
<circle cx="80.2375" cy="10.553" r="0.5" fill="white"/>
<circle cx="265.359" cy="50.3481" r="0.5" fill="white"/>
<circle cx="131.588" cy="68.5089" r="0.5" fill="white"/>
<circle cx="258.37" cy="30.2559" r="0.5" fill="white"/>
<circle cx="273.952" cy="16.9174" r="0.5" fill="white"/>
<circle cx="368.711" cy="61.2369" r="0.5" fill="white"/>
<circle cx="286.04" cy="45.4009" r="0.5" fill="white"/>
<circle cx="344.938" cy="16.5685" r="0.5" fill="white"/>
<circle cx="383.979" cy="72.9994" r="0.5" fill="white"/>
<circle cx="30.6925" cy="18.5726" r="0.5" fill="white"/>
<circle cx="141.991" cy="31.8267" r="0.5" fill="white"/>
<circle cx="247.973" cy="34.1625" r="0.5" fill="white"/>
<circle cx="283.773" cy="7.00803" r="0.5" fill="white"/>
<circle cx="18.7939" cy="37.1247" r="0.5" fill="white"/>
<circle cx="179.069" cy="42.9862" r="0.5" fill="white"/>
<circle cx="151.687" cy="4.58878" r="0.5" fill="white"/>
<circle cx="231.196" cy="38.3059" r="0.5" fill="white"/>
<circle cx="77.6443" cy="15.3931" r="0.5" fill="white"/>
<circle cx="205.589" cy="64.3014" r="0.5" fill="white"/>
<circle cx="306.399" cy="55.5858" r="0.5" fill="white"/>
<circle cx="114.398" cy="45.0755" r="0.5" fill="white"/>
<circle cx="58.06" cy="28.1339" r="0.5" fill="white"/>
<circle cx="291.956" cy="25.9887" r="0.5" fill="white"/>
<circle cx="186.432" cy="4.75647" r="0.5" fill="white"/>
<circle cx="344.293" cy="42.517" r="0.5" fill="white"/>
<circle cx="69.4328" cy="58.6604" r="0.5" fill="white"/>
<circle cx="2.44881" cy="39.7906" r="0.5" fill="white"/>
<circle cx="344.655" cy="51.0505" r="0.5" fill="white"/>
<circle cx="383.099" cy="24.112" r="0.5" fill="white"/>
<circle cx="283.924" cy="32.7841" r="0.5" fill="white"/>
<circle cx="329.921" cy="71.1935" r="0.5" fill="white"/>
<circle cx="279.869" cy="64.7325" r="0.5" fill="white"/>
<circle cx="89.2526" cy="11.4586" r="0.5" fill="white"/>
<circle cx="80.0436" cy="4.04028" r="0.5" fill="white"/>
<circle cx="120.731" cy="48.8969" r="0.5" fill="white"/>
<circle cx="16.5479" cy="19.4409" r="0.5" fill="white"/>
<circle cx="10.6252" cy="13.924" r="0.5" fill="white"/>
<circle cx="191.456" cy="77.7166" r="0.5" fill="white"/>
<circle cx="197.7" cy="18.9073" r="0.5" fill="white"/>
<circle cx="149.424" cy="38.0442" r="0.5" fill="white"/>
<circle cx="318.81" cy="76.1594" r="0.5" fill="white"/>
<circle cx="317.739" cy="67.5086" r="0.5" fill="white"/>
<circle cx="120.901" cy="37.7114" r="0.5" fill="white"/>
<circle cx="93.9335" cy="69.9075" r="0.5" fill="white"/>
<circle cx="25.9439" cy="76.1208" r="0.5" fill="white"/>
<circle cx="71.0798" cy="23.2444" r="0.5" fill="white"/>
<circle cx="252.628" cy="49.7414" r="0.5" fill="white"/>
<circle cx="286.668" cy="48.7131" r="0.5" fill="white"/>
<circle cx="85.712" cy="21.7235" r="0.5" fill="white"/>
<circle cx="8.037" cy="12.2781" r="0.5" fill="white"/>
<circle cx="285.543" cy="53.7493" r="0.5" fill="white"/>
<circle cx="40.0061" cy="58.0709" r="0.5" fill="white"/>
<circle cx="159.141" cy="67.9346" r="0.5" fill="white"/>
<circle cx="167.934" cy="1.13718" r="0.5" fill="white"/>
<circle cx="44.0247" cy="67.7191" r="0.5" fill="white"/>
<circle cx="33.1248" cy="70.5385" r="0.5" fill="white"/>
<circle cx="69.0847" cy="48.6649" r="0.5" fill="white"/>
<circle cx="107.076" cy="38.7037" r="0.5" fill="white"/>
<circle cx="209.024" cy="25.9818" r="0.5" fill="white"/>
<circle cx="202.319" cy="47.1628" r="0.5" fill="white"/>
<circle cx="271.468" cy="13.4049" r="0.5" fill="white"/>
<circle cx="192.786" cy="58.3682" r="0.5" fill="white"/>
<circle cx="364.866" cy="58.0007" r="0.5" fill="white"/>
<circle cx="302.473" cy="9.6503" r="0.5" fill="white"/>
<circle cx="392.763" cy="19.8073" r="0.5" fill="white"/>
<circle cx="307.785" cy="49.6898" r="0.5" fill="white"/>
<circle cx="97.4612" cy="3.86884" r="0.5" fill="white"/>
<circle cx="183.444" cy="46.1996" r="0.5" fill="white"/>
<circle cx="342.809" cy="3.08221" r="0.5" fill="white"/>
<circle cx="10.4986" cy="60.427" r="0.5" fill="white"/>
<circle cx="41.061" cy="63.9682" r="0.5" fill="white"/>
<circle cx="288.312" cy="56.009" r="0.5" fill="white"/>
<circle cx="309.123" cy="29.2625" r="0.5" fill="white"/>
<circle cx="155.982" cy="61.9152" r="0.5" fill="white"/>
<circle cx="277.085" cy="69.9308" r="0.5" fill="white"/>
<circle cx="270.692" cy="14.3059" r="0.5" fill="white"/>
<circle cx="147.698" cy="7.39111" r="0.5" fill="white"/>
<circle cx="341.786" cy="50.3348" r="0.5" fill="white"/>
<circle cx="290.802" cy="31.8411" r="0.5" fill="white"/>
<circle cx="69.5055" cy="71.8861" r="0.5" fill="white"/>
<circle cx="58.4217" cy="51.0588" r="0.5" fill="white"/>
<circle cx="383.118" cy="10.6588" r="0.5" fill="white"/>
<circle cx="347.451" cy="37.563" r="0.5" fill="white"/>
<circle cx="301.967" cy="36.6761" r="0.5" fill="white"/>
<circle cx="6.01422" cy="24.3802" r="0.5" fill="white"/>
<circle cx="315.158" cy="1.4418" r="0.5" fill="white"/>
<circle cx="176.546" cy="68.2482" r="0.5" fill="white"/>
<circle cx="308.922" cy="46.8705" r="0.5" fill="white"/>
<circle cx="29.8039" cy="5.53204" r="0.5" fill="white"/>
<circle cx="367.809" cy="62.2937" r="0.5" fill="white"/>
<circle cx="340.578" cy="73.1518" r="0.5" fill="white"/>
<circle cx="130.192" cy="1.87094" r="0.5" fill="white"/>
<circle cx="292.38" cy="32.2778" r="0.5" fill="white"/>
<circle cx="285.942" cy="4.69827" r="0.5" fill="white"/>
<circle cx="232.477" cy="2.17984" r="0.5" fill="white"/>
<circle cx="301.622" cy="14.325" r="0.5" fill="white"/>
<circle cx="84.9277" cy="11.6754" r="0.5" fill="white"/>
<circle cx="97.0405" cy="13.1071" r="0.5" fill="white"/>
<circle cx="213.245" cy="70.2544" r="0.5" fill="white"/>
<circle cx="69.0001" cy="50.2" r="0.5" fill="white"/>
<circle cx="263.767" cy="20.1167" r="0.5" fill="white"/>
<circle cx="264.796" cy="76.8175" r="0.5" fill="white"/>
<circle cx="142.508" cy="64.548" r="0.5" fill="white"/>
<circle cx="338.408" cy="27.8011" r="0.5" fill="white"/>
<circle cx="282.633" cy="17.725" r="0.5" fill="white"/>
<circle cx="338.502" cy="52.82" r="0.5" fill="white"/>
<circle cx="123.329" cy="59.3811" r="0.5" fill="white"/>
<circle cx="134.303" cy="67.6297" r="0.5" fill="white"/>
<circle cx="256.91" cy="43.1349" r="0.5" fill="white"/>
<circle cx="268.141" cy="9.41071" r="0.5" fill="white"/>
<circle cx="85.1094" cy="74.7509" r="0.5" fill="white"/>
<circle cx="129.461" cy="50.7566" r="0.5" fill="white"/>
<circle cx="16.8012" cy="8.00439" r="0.5" fill="white"/>
<circle cx="77.8384" cy="58.8084" r="0.5" fill="white"/>
<circle cx="92.7915" cy="74.9079" r="0.5" fill="white"/>
<circle cx="216.753" cy="40.7887" r="0.5" fill="white"/>
<circle cx="54.4276" cy="4.65268" r="0.5" fill="white"/>
<circle cx="62.8528" cy="15.9479" r="0.5" fill="white"/>
<circle cx="36.8497" cy="12.3065" r="0.5" fill="white"/>
<circle cx="328.633" cy="44.8665" r="0.5" fill="white"/>
<circle cx="88.4131" cy="46.2484" r="0.5" fill="white"/>
<circle cx="21.2891" cy="63.1866" r="0.5" fill="white"/>
<circle cx="285.69" cy="57.4006" r="0.5" fill="white"/>
<circle cx="304.687" cy="76.2872" r="0.5" fill="white"/>
<circle cx="100.611" cy="44.3524" r="0.5" fill="white"/>
<circle cx="228.649" cy="44.6548" r="0.5" fill="white"/>
<circle cx="377.01" cy="30.2951" r="0.5" fill="white"/>
<circle cx="326.886" cy="5.0928" r="0.5" fill="white"/>
<circle cx="72.9103" cy="17.9152" r="0.5" fill="white"/>
<circle cx="49.7856" cy="16.1925" r="0.5" fill="white"/>
<circle cx="287.782" cy="32.9126" r="0.5" fill="white"/>
<circle cx="108.179" cy="32.3009" r="0.5" fill="white"/>
<circle cx="18.5174" cy="27.0494" r="0.5" fill="white"/>
<circle cx="210.629" cy="69.2033" r="0.5" fill="white"/>
<circle cx="190.455" cy="59.7561" r="0.5" fill="white"/>
<circle cx="393.088" cy="51.2299" r="0.5" fill="white"/>
<circle cx="33.8644" cy="4.30893" r="0.5" fill="white"/>
<circle cx="338.591" cy="29.5931" r="0.5" fill="white"/>
<circle cx="191.452" cy="7.22122" r="0.5" fill="white"/>
<circle cx="214.334" cy="20.486" r="0.5" fill="white"/>
<circle cx="209.519" cy="24.7643" r="0.5" fill="white"/>
<circle cx="303.549" cy="50.6909" r="0.5" fill="white"/>
<circle cx="204.125" cy="33.5236" r="0.5" fill="white"/>
<circle cx="316.212" cy="19.9725" r="0.5" fill="white"/>
<circle cx="162.007" cy="59.2953" r="0.5" fill="white"/>
<circle cx="53.2961" cy="20.3529" r="0.5" fill="white"/>
<circle cx="326.028" cy="41.7394" r="0.5" fill="white"/>
<circle cx="34.4155" cy="70.5888" r="0.5" fill="white"/>
<circle cx="232.877" cy="45.1166" r="0.5" fill="white"/>
<circle cx="166.354" cy="22.3753" r="0.5" fill="white"/>
<circle cx="181.276" cy="75.0055" r="0.5" fill="white"/>
<circle cx="198.28" cy="31.3134" r="0.5" fill="white"/>
<circle cx="280.12" cy="51.5872" r="0.5" fill="white"/>
<circle cx="361.266" cy="2.82797" r="0.5" fill="white"/>
<circle cx="330.522" cy="55.9611" r="0.5" fill="white"/>
<circle cx="284.67" cy="24.4436" r="0.5" fill="white"/>
<circle cx="169.922" cy="4.4429" r="0.5" fill="white"/>
<circle cx="155.599" cy="14.1112" r="0.5" fill="white"/>
<circle cx="62.8216" cy="72.0167" r="0.5" fill="white"/>
<circle cx="166.295" cy="71.2167" r="0.5" fill="white"/>
<circle cx="356.226" cy="34.2243" r="0.5" fill="white"/>
<circle cx="365.985" cy="19.9091" r="0.5" fill="white"/>
<circle cx="137.044" cy="70.4679" r="0.5" fill="white"/>
<circle cx="233.099" cy="52.9449" r="0.5" fill="white"/>
<circle cx="98.3661" cy="29.1305" r="0.5" fill="white"/>
<circle cx="377.653" cy="17.9141" r="0.5" fill="white"/>
<circle cx="274.513" cy="50.5555" r="0.5" fill="white"/>
<circle cx="27.4756" cy="36.5204" r="0.5" fill="white"/>
<circle cx="291.893" cy="55.9543" r="0.5" fill="white"/>
<circle cx="355.076" cy="35.2565" r="0.5" fill="white"/>
<circle cx="98.2159" cy="73.2888" r="0.5" fill="white"/>
<circle cx="182.421" cy="32.9056" r="0.5" fill="white"/>
<circle cx="208.52" cy="46.8756" r="0.5" fill="white"/>
<circle cx="65.4008" cy="58.7214" r="0.5" fill="white"/>
<circle cx="0.670929" cy="24.8609" r="0.5" fill="white"/>
<circle cx="224.116" cy="78.32" r="0.5" fill="white"/>
<circle cx="352.002" cy="44.8514" r="0.5" fill="white"/>
<circle cx="29.7051" cy="69.9215" r="0.5" fill="white"/>
<circle cx="230.236" cy="67.6168" r="0.5" fill="white"/>
<circle cx="252.558" cy="52.2283" r="0.5" fill="white"/>
<circle cx="286.428" cy="61.8765" r="0.5" fill="white"/>
<circle cx="146.148" cy="36.7854" r="0.5" fill="white"/>
<circle cx="330.433" cy="61.8843" r="0.5" fill="white"/>
<circle cx="147.606" cy="36.0402" r="0.5" fill="white"/>
<circle cx="289.734" cy="31.6819" r="0.5" fill="white"/>
<circle cx="229.583" cy="10.1029" r="0.5" fill="white"/>
<circle cx="292.607" cy="27.3879" r="0.5" fill="white"/>
<circle cx="344.546" cy="0.888489" r="0.5" fill="white"/>
<circle cx="311.161" cy="37.9393" r="0.5" fill="white"/>
<circle cx="7.50818" cy="22.4457" r="0.5" fill="white"/>
<circle cx="160.526" cy="5.25836" r="0.5" fill="white"/>
<circle cx="118.929" cy="41.9954" r="0.5" fill="white"/>
<circle cx="155.316" cy="30.0457" r="0.5" fill="white"/>
<circle cx="264.564" cy="15.6255" r="0.5" fill="white"/>
<circle cx="24.8036" cy="26.2102" r="0.5" fill="white"/>
<circle cx="311.74" cy="6.00327" r="0.5" fill="white"/>
<circle cx="35.096" cy="4.64175" r="0.5" fill="white"/>
<circle cx="44.6902" cy="71.3983" r="0.5" fill="white"/>
<circle cx="63.5942" cy="70.3607" r="0.5" fill="white"/>
<circle cx="307.75" cy="56.6866" r="0.5" fill="white"/>
<circle cx="165.688" cy="30.2682" r="0.5" fill="white"/>
<circle cx="110.668" cy="72.4597" r="0.5" fill="white"/>
<circle cx="152.067" cy="29.3802" r="0.5" fill="white"/>
<circle cx="17.149" cy="10.5269" r="0.5" fill="white"/>
<circle cx="340.687" cy="75.5186" r="0.5" fill="white"/>
<circle cx="205.162" cy="64.7967" r="0.5" fill="white"/>
<circle cx="346.96" cy="9.80112" r="0.5" fill="white"/>
<circle cx="72.9128" cy="32.1503" r="0.5" fill="white"/>
<circle cx="321.27" cy="54.734" r="0.5" fill="white"/>
<circle cx="92.5168" cy="31.3881" r="0.5" fill="white"/>
<circle cx="322.129" cy="17.3757" r="0.5" fill="white"/>
<circle cx="298.014" cy="17.2276" r="0.5" fill="white"/>
<circle cx="93.8883" cy="3.01053" r="0.5" fill="white"/>
<circle cx="253.718" cy="30.8633" r="0.5" fill="white"/>
<circle cx="248.289" cy="77.0764" r="0.5" fill="white"/>
<circle cx="301.489" cy="56.4518" r="0.5" fill="white"/>
<circle cx="122.894" cy="31.7204" r="0.5" fill="white"/>
<circle cx="375.247" cy="67.3967" r="0.5" fill="white"/>
<circle cx="371.405" cy="10.4883" r="0.5" fill="white"/>
<circle cx="262.693" cy="48.619" r="0.5" fill="white"/>
<circle cx="73.6388" cy="1.35828" r="0.5" fill="white"/>
<circle cx="336.789" cy="78.3398" r="0.5" fill="white"/>
<circle cx="164.007" cy="53.8702" r="0.5" fill="white"/>
<circle cx="381.015" cy="53.5011" r="0.5" fill="white"/>
<circle cx="233.808" cy="71.9427" r="0.5" fill="white"/>
<circle cx="282.004" cy="10.412" r="0.5" fill="white"/>
<circle cx="294.903" cy="9.47836" r="0.5" fill="white"/>
<circle cx="240.704" cy="68.603" r="0.5" fill="white"/>
<circle cx="3.00153" cy="16.5978" r="0.5" fill="white"/>
<circle cx="138.403" cy="12.2682" r="0.5" fill="white"/>
<circle cx="194.21" cy="77.0292" r="0.5" fill="white"/>
<circle cx="266.988" cy="15.0695" r="0.5" fill="white"/>
<circle cx="323.054" cy="46.7108" r="0.5" fill="white"/>
<circle cx="202.939" cy="11.3814" r="0.5" fill="white"/>
<circle cx="14.2546" cy="70.8563" r="0.5" fill="white"/>
<circle cx="215.181" cy="75.3026" r="0.5" fill="white"/>
<circle cx="327.557" cy="1.66614" r="0.5" fill="white"/>
<circle cx="297.843" cy="38.0518" r="0.5" fill="white"/>
<circle cx="136.973" cy="12.0998" r="0.5" fill="white"/>
<circle cx="377.245" cy="70.9353" r="0.5" fill="white"/>
<circle cx="117.262" cy="20.5347" r="0.5" fill="white"/>
<circle cx="57.0444" cy="17.6109" r="0.5" fill="white"/>
<circle cx="15.6066" cy="13.7448" r="0.5" fill="white"/>
<circle cx="312.952" cy="64.4873" r="0.5" fill="white"/>
<circle cx="291.149" cy="56.5811" r="0.5" fill="white"/>
<circle cx="30.4047" cy="57.5356" r="0.5" fill="white"/>
<circle cx="14.6304" cy="65.6544" r="0.5" fill="white"/>
<circle cx="196.205" cy="78.3439" r="0.5" fill="white"/>
<circle cx="350.948" cy="74.5833" r="0.5" fill="white"/>
<circle cx="84.3738" cy="43.9476" r="0.5" fill="white"/>
<circle cx="177.199" cy="73.4492" r="0.5" fill="white"/>
<circle cx="206.429" cy="29.0561" r="0.5" fill="white"/>
<circle cx="366.275" cy="6.69342" r="0.5" fill="white"/>
<circle cx="249.641" cy="21.2014" r="0.5" fill="white"/>
<circle cx="3.29802" cy="70.5045" r="0.5" fill="white"/>
<circle cx="239.607" cy="48.1336" r="0.5" fill="white"/>
<circle cx="219.71" cy="47.5008" r="0.5" fill="white"/>
<circle cx="280.244" cy="9.34027" r="0.5" fill="white"/>
<circle cx="45.7318" cy="19.9817" r="0.5" fill="white"/>
<circle cx="26.7977" cy="6.78961" r="0.5" fill="white"/>
<circle cx="71.8929" cy="13.5599" r="0.5" fill="white"/>
<circle cx="185.124" cy="30.0812" r="0.5" fill="white"/>
<circle cx="173.272" cy="40.5196" r="0.5" fill="white"/>
<circle cx="214.109" cy="62.2181" r="0.5" fill="white"/>
<circle cx="307.248" cy="63.3546" r="0.5" fill="white"/>
<circle cx="68.3766" cy="38.7057" r="0.5" fill="white"/>
<circle cx="278.023" cy="65.2065" r="0.5" fill="white"/>
<circle cx="302.424" cy="21.4415" r="0.5" fill="white"/>
<circle cx="301.577" cy="23.9251" r="0.5" fill="white"/>
<circle cx="125.898" cy="43.549" r="0.5" fill="white"/>
<circle cx="381.105" cy="65.8633" r="0.5" fill="white"/>
<circle cx="207.386" cy="47.4139" r="0.5" fill="white"/>
<circle cx="153.403" cy="54.3428" r="0.5" fill="white"/>
<circle cx="327.559" cy="27.2922" r="0.5" fill="white"/>
<circle cx="282.369" cy="0.882324" r="0.5" fill="white"/>
<circle cx="311.444" cy="9.25546" r="0.5" fill="white"/>
<circle cx="372.874" cy="73.8944" r="0.5" fill="white"/>
<circle cx="174.128" cy="68.0322" r="0.5" fill="white"/>
<circle cx="63.0165" cy="52.071" r="0.5" fill="white"/>
<circle cx="313.847" cy="64.3021" r="0.5" fill="white"/>
<circle cx="370.564" cy="51.5231" r="0.5" fill="white"/>
<circle cx="91.3627" cy="73.2711" r="0.5" fill="white"/>
<circle cx="41.6288" cy="41.2686" r="0.5" fill="white"/>
<circle cx="254.453" cy="58.1592" r="0.5" fill="white"/>
<circle cx="118.167" cy="64.4767" r="0.5" fill="white"/>
<circle cx="237.218" cy="75.807" r="0.5" fill="white"/>
<circle cx="239.375" cy="42.3214" r="0.5" fill="white"/>
<circle cx="79.9061" cy="66.6022" r="0.5" fill="white"/>
<circle cx="290.267" cy="6.09982" r="0.5" fill="white"/>
<circle cx="18.4261" cy="76.9227" r="0.5" fill="white"/>
<circle cx="30.2491" cy="73.1455" r="0.5" fill="white"/>
<circle cx="294.122" cy="71.5091" r="0.5" fill="white"/>
<circle cx="341.04" cy="61.3316" r="0.5" fill="white"/>
<circle cx="195.816" cy="12.1484" r="0.5" fill="white"/>
<circle cx="69.2776" cy="4.76978" r="0.5" fill="white"/>
<circle cx="137.982" cy="33.9526" r="0.5" fill="white"/>
<circle cx="168.089" cy="28.9254" r="0.5" fill="white"/>
<circle cx="94.0316" cy="43.0763" r="0.5" fill="white"/>
<circle cx="137.195" cy="60.6879" r="0.5" fill="white"/>
<circle cx="148.766" cy="35.4688" r="0.5" fill="white"/>
<circle cx="64.7608" cy="57.8442" r="0.5" fill="white"/>
<circle cx="116.854" cy="1.63342" r="0.5" fill="white"/>
<circle cx="318.417" cy="29.1953" r="0.5" fill="white"/>
<circle cx="79.1958" cy="39.1852" r="0.5" fill="white"/>
<circle cx="18.4013" cy="68.1694" r="0.5" fill="white"/>
<circle cx="185.526" cy="75.051" r="0.5" fill="white"/>
<circle cx="14.502" cy="32.808" r="0.5" fill="white"/>
<circle cx="249.49" cy="49.4724" r="0.5" fill="white"/>
<circle cx="212.824" cy="45.3326" r="0.5" fill="white"/>
<circle cx="98.9285" cy="59.8762" r="0.5" fill="white"/>
<circle cx="106.236" cy="62.1154" r="0.5" fill="white"/>
<circle cx="15.1941" cy="44.7089" r="0.5" fill="white"/>
<circle cx="98.654" cy="2.27631" r="0.5" fill="white"/>
<circle cx="183.439" cy="26.4486" r="0.5" fill="white"/>
<circle cx="197.019" cy="17.8838" r="0.5" fill="white"/>
<circle cx="329.801" cy="49.0003" r="0.5" fill="white"/>
<circle cx="336.384" cy="36.2508" r="0.5" fill="white"/>
<circle cx="344.806" cy="39.4963" r="0.5" fill="white"/>
<circle cx="186.803" cy="70.083" r="0.5" fill="white"/>
<circle cx="350.791" cy="20.8046" r="0.5" fill="white"/>
<circle cx="61.5642" cy="50.1654" r="0.5" fill="white"/>
<circle cx="63.198" cy="34.4421" r="0.5" fill="white"/>
<circle cx="323.311" cy="35.3583" r="0.5" fill="white"/>
<circle cx="52.2361" cy="26.1565" r="0.5" fill="white"/>
<circle cx="174.72" cy="71.7752" r="0.5" fill="white"/>
<circle cx="33.002" cy="63.4056" r="0.5" fill="white"/>
<circle cx="104.403" cy="60.8372" r="0.5" fill="white"/>
<circle cx="195.048" cy="20.4252" r="0.5" fill="white"/>
<circle cx="239.008" cy="56.7236" r="0.5" fill="white"/>
<circle cx="372.399" cy="54.4615" r="0.5" fill="white"/>
<circle cx="14.3375" cy="29.7309" r="0.5" fill="white"/>
<circle cx="232.547" cy="11.241" r="0.5" fill="white"/>
<circle cx="266.108" cy="52.8966" r="0.5" fill="white"/>
<circle cx="37.4683" cy="44.0185" r="0.5" fill="white"/>
<circle cx="8.24957" cy="37.593" r="0.5" fill="white"/>
<circle cx="146.789" cy="1.36923" r="0.5" fill="white"/>
<circle cx="277.756" cy="5.08832" r="0.5" fill="white"/>
<circle cx="110.459" cy="33.5092" r="0.5" fill="white"/>
<circle cx="112.027" cy="76.6792" r="0.5" fill="white"/>
<circle cx="159.334" cy="16.7793" r="0.5" fill="white"/>
<circle cx="264.758" cy="43.693" r="0.5" fill="white"/>
<circle cx="4.73045" cy="22.8246" r="0.5" fill="white"/>
<circle cx="367.277" cy="29.834" r="0.5" fill="white"/>
<circle cx="77.1111" cy="23.5071" r="0.5" fill="white"/>
<circle cx="66.8322" cy="1.17886" r="0.5" fill="white"/>
<circle cx="307.081" cy="16.9301" r="0.5" fill="white"/>
<circle cx="236.859" cy="6.13721" r="0.5" fill="white"/>
<circle cx="297.939" cy="29.8366" r="0.5" fill="white"/>
<circle cx="290.593" cy="62.6478" r="0.5" fill="white"/>
<circle cx="373.677" cy="50.7986" r="0.5" fill="white"/>
<circle cx="341.126" cy="46.5172" r="0.5" fill="white"/>
</g>
<g clip-path="url(#clip2_13_94)">
<g filter="url(#filter0_f_13_94)">
<ellipse cx="112.886" cy="-175.569" rx="176.85" ry="53.055" transform="rotate(-90.0296 112.886 -175.569)" fill="#0000FF" fill-opacity="0.15"/>
</g>
<g filter="url(#filter1_f_13_94)">
<ellipse cx="161.308" cy="59.514" rx="176.85" ry="53.055" transform="rotate(166.243 161.308 59.514)" fill="#0000FF" fill-opacity="0.15"/>
</g>
<g filter="url(#filter2_f_13_94)">
<ellipse cx="70.8677" cy="236.177" rx="176.85" ry="53.055" transform="rotate(96.088 70.8677 236.177)" fill="#0000FF" fill-opacity="0.15"/>
</g>
</g>
</g>
<rect width="393" height="78" fill="#263777" fill-opacity="0.7"/>
<circle cx="393" r="93" stroke="#3DA14A" stroke-width="14"/>
<circle cx="393" r="71" stroke="#02A1D7" stroke-width="14"/>
<circle cx="393" r="49" stroke="#761D21" stroke-width="14"/>
<circle cx="393" r="27" stroke="#D3242C" stroke-width="14"/>
<defs>
<filter id="filter0_f_13_94" x="-90.1688" y="-502.419" width="406.11" height="653.7" filterUnits="userSpaceOnUse" color-interpolation-filters="sRGB">
<feFlood flood-opacity="0" result="BackgroundImageFix"/>
<feBlend mode="normal" in="SourceGraphic" in2="BackgroundImageFix" result="shape"/>
<feGaussianBlur stdDeviation="75" result="effect1_foregroundBlur_13_94"/>
</filter>
<filter id="filter1_f_13_94" x="-160.939" y="-157.004" width="644.494" height="433.035" filterUnits="userSpaceOnUse" color-interpolation-filters="sRGB">
<feFlood flood-opacity="0" result="BackgroundImageFix"/>
<feBlend mode="normal" in="SourceGraphic" in2="BackgroundImageFix" result="shape"/>
<feGaussianBlur stdDeviation="75" result="effect1_foregroundBlur_13_94"/>
</filter>
<filter id="filter2_f_13_94" x="-135.138" y="-89.767" width="412.012" height="651.889" filterUnits="userSpaceOnUse" color-interpolation-filters="sRGB">
<feFlood flood-opacity="0" result="BackgroundImageFix"/>
<feBlend mode="normal" in="SourceGraphic" in2="BackgroundImageFix" result="shape"/>
<feGaussianBlur stdDeviation="75" result="effect1_foregroundBlur_13_94"/>
</filter>
<clipPath id="clip0_13_94">
<rect width="393" height="78" fill="white"/>
</clipPath>
<clipPath id="clip1_13_94">
<rect width="393" height="78" fill="white"/>
</clipPath>
<clipPath id="clip2_13_94">
<rect width="393" height="78" fill="white"/>
</clipPath>
</defs>
</svg>
